<svg width="1321" height="248" viewBox="0 0 1321 248" fill="none" xmlns="http://www.w3.org/2000/svg">
<g clip-path="url(#clip0_235_78)">
<path d="M58.0159 167.976V244.439H0V21.9656H67.9844C113.211 21.9656 134.11 47.4534 134.11 94.9708C134.11 142.488 113.243 167.976 67.9844 167.976H58.0159ZM64.0419 112.358C72.8564 112.358 75.4207 109.124 75.4207 99.1334V90.7762C75.4207 80.818 72.8564 77.552 64.0419 77.552H58.0159V112.326H64.0419V112.358Z" fill="#2B1E9B"/>
<path d="M204.371 247.93C153.791 247.93 137.797 211.075 137.797 157.538C137.797 104 154.496 67.1456 204.371 67.1456C254.245 67.1456 270.945 104 270.945 157.538C270.945 211.075 254.245 247.93 204.371 247.93ZM212.961 130.449C212.961 123.949 210.397 119.338 204.371 119.338C198.345 119.338 195.781 123.981 195.781 130.449V184.69C195.781 191.19 198.345 195.801 204.371 195.801C210.397 195.801 212.961 191.158 212.961 184.69V130.449Z" fill="#2B1E9B"/>
<path d="M351.235 244.471V70.6357H405.757V88.0225H406.206C414.572 75.2786 427.553 68.3303 444.253 68.3303C468.838 68.3303 479.736 84.7885 479.736 114.439V244.439H424.06V130.417C424.06 123.917 421.495 119.306 415.469 119.306C409.443 119.306 406.879 123.949 406.879 130.417V244.439H351.203L351.235 244.471Z" fill="#2B1E9B"/>
<path d="M581.601 70.6357V119.306H561.889V244.439H506.213V119.306H486.5V70.6357H506.213V45.1479H561.889V70.6357H581.601Z" fill="#2B1E9B"/>
<path d="M706.094 247.93C655.514 247.93 639.52 211.075 639.52 157.538C639.52 104 656.219 67.1456 706.094 67.1456C755.968 67.1456 772.668 104 772.668 157.538C772.668 211.075 755.968 247.93 706.094 247.93ZM714.684 130.449C714.684 123.949 712.12 119.338 706.094 119.338C700.068 119.338 697.503 123.981 697.503 130.449V184.69C697.503 191.19 700.068 195.801 706.094 195.801C712.12 195.801 714.684 191.158 714.684 184.69V130.449Z" fill="#2B1E9B"/>
<path d="M863.41 70.6357C852.737 70.6357 849.243 75.0545 849.243 85.9412V94.9708H866.872V143.641H849.948V244.439H794.272V143.641H779.207V94.9708H794.977V76.4313C794.977 36.7907 817.959 20.3325 856.455 21.9656L866.904 22.4138V70.6037H863.41V70.6357Z" fill="#2B1E9B"/>
<path d="M991.399 75.2786L1002.3 21.9656H1061.92L1029.45 156.385V244.439H952.903V156.385L920.434 21.9656H980.052L990.95 75.2786H991.399Z" fill="#2B1E9B"/>
<path d="M1114.61 247.93C1064.03 247.93 1048.04 211.075 1048.04 157.538C1048.04 104 1064.73 67.1456 1114.61 67.1456C1164.48 67.1456 1181.18 104 1181.18 157.538C1181.18 211.075 1164.48 247.93 1114.61 247.93ZM1123.2 130.449C1123.2 123.949 1120.64 119.338 1114.61 119.338C1108.58 119.338 1106.02 123.981 1106.02 130.449V184.69C1106.02 191.19 1108.58 195.801 1114.61 195.801C1120.64 195.801 1123.2 191.158 1123.2 184.69V130.449Z" fill="#2B1E9B"/>
<path d="M1321 70.6357V244.439H1266.48V227.053H1266.03C1257.66 239.797 1244.68 246.745 1227.98 246.745C1203.4 246.745 1192.5 230.287 1192.5 200.636V70.6357H1248.18V184.658C1248.18 191.158 1250.74 195.769 1256.77 195.769C1262.79 195.769 1265.36 191.126 1265.36 184.658V70.6357H1321.03H1321Z" fill="#2B1E9B"/>
<path d="M337.324 70.6357H281.648V244.439H337.324V70.6357Z" fill="#2B1E9B"/>
<path d="M309.47 59.3007C325.863 59.3007 339.151 46.0258 339.151 29.6504C339.151 13.2749 325.863 0 309.47 0C293.078 0 279.789 13.2749 279.789 29.6504C279.789 46.0258 293.078 59.3007 309.47 59.3007Z" fill="#2B1E9B"/>
<path d="M331.462 59.8771L329.474 41.0494L314.121 52.1603L331.462 59.8771Z" fill="#2B1E9B"/>
</g>
<defs>
<clipPath id="clip0_235_78">
<rect width="1321" height="247.93" fill="white"/>
</clipPath>
</defs>
</svg>
