<?xml version="1.0" encoding="UTF-8"?>
<svg id="Layer_1" xmlns="http://www.w3.org/2000/svg" version="1.1" viewBox="0 0 267 44.1">
  <!-- Generator: Adobe Illustrator 29.2.1, SVG Export Plug-In . SVG Version: 2.1.0 Build 116)  -->
  <polygon points="36.6 43.1 23.8 20.3 36.5 1.1 26.7 1.1 9.3 27.3 9.3 1.1 .2 1.1 .2 43.1 8.3 43.1 18.2 28.7 26.5 43.1 36.6 43.1"/>
  <polygon points="78 43.1 65.2 20.3 77.9 1.1 68.1 1.1 50.7 27.3 50.7 1.1 41.6 1.1 41.6 43.1 49.7 43.1 59.6 28.7 67.9 43.1 78 43.1"/>
  <polygon points="91.1 43.1 119.3 1.1 109.5 1.1 92.1 27.3 92.1 1.1 83 1.1 83 43.1 91.1 43.1"/>
  <polygon points="108.7 30.5 126.5 30.5 126.5 22.7 113.5 22.7 108.7 30.5"/>
  <path d="M143.4,7.6h9.6c4.6,0,6.8,1.9,6.8,5.6s-2.2,5.6-7.4,5.6h-9.1V7.6ZM160.1,43.1h11.1l-13-18.2c7.2-1.2,11.1-5.1,11.1-11.7s-5.1-12.1-15.1-12.1h-20v42h9.2v-17.8h4.6c0,0,12.1,17.8,12.1,17.8Z"/>
  <rect x="176.9" y="1.1" width="9.2" height="42"/>
  <polygon points="230.4 43.1 217.5 20.3 230.3 1.1 220.4 1.1 203.1 27.3 203.1 1.1 193.9 1.1 193.9 43.1 202.1 43.1 211.9 28.7 220.2 43.1 230.4 43.1"/>
  <path d="M249.2,44.1c10.9,0,17.8-5,17.8-13.1s-5.1-10.6-12-12.2l-7.5-1.8c-4.7-1.1-6.5-2.7-6.5-5.5s3.2-5,7.3-5,7.7,2.2,8.5,6.1h9.1c-1.1-8-7.2-12.4-17.3-12.4s-16.9,4.6-16.9,12.2,3.9,10.2,11.1,12l7.4,1.9c5.1,1.3,7.4,3,7.4,6.1s-3,5.5-8.3,5.5-8.5-2.6-9.3-6.5h-9.4c1.1,8.2,7.8,12.8,18.7,12.8Z"/>
</svg>